<?xml version="1.0" encoding="iso-8859-1"?>
<!-- Uploaded to: SVG Repo, www.svgrepo.com, Generator: SVG Repo Mixer Tools -->
<svg height="800px" width="800px" version="1.1" id="Layer_1" xmlns="http://www.w3.org/2000/svg" xmlns:xlink="http://www.w3.org/1999/xlink" 
	 viewBox="0 0 512.077 512.077" xml:space="preserve">
<g transform="translate(0 -1)">
	<g>
		<path style="fill:#91CF96;" d="M236.247,103.494c-38.579,0-67.473-9.446-85.914-28.109
			c-23.211-23.492-22.477-54.007-22.229-64.034l0.034-1.741c0-4.71,3.814-8.533,8.533-8.533l1.382-0.026
			c45.952-1.05,71.45,14.208,84.727,27.187c16.469,16.102,24.823,38.545,24.823,66.705c0,4.668-3.763,8.474-8.431,8.533
			C238.193,103.494,237.211,103.494,236.247,103.494"/>
		<path style="fill:#91CF96;" d="M231.18,233.015c-14.899,0-27.759-3.345-38.443-10.01c-23.236-14.515-28.399-39.629-30.097-47.889
			l-0.256-1.212c-1.033-4.548,1.775-9.079,6.306-10.189l0.725-0.179c26.65-6.886,51.149-4.668,68.983,6.204
			c16.034,9.771,26.743,26.112,31.846,48.555c1.024,4.514-1.732,9.011-6.204,10.163C252.189,231.496,241.224,233.015,231.18,233.015
			"/>
		<path style="fill:#91CF96;" d="M335.48,269.16c-14.387,0-30.754-4.309-48.956-12.902c-4.215-1.997-6.059-7.014-4.113-11.264
			c9.66-21.129,23.185-34.748,40.201-40.491c18.338-6.178,39.697-2.842,63.514,9.907l1.476,0.777
			c4.224,1.997,6.144,7.049,4.198,11.307c-0.188,0.418-0.418,0.998-0.7,1.715c-3.098,7.714-11.315,28.228-33.647,37.009
			C350.764,267.846,343.425,269.16,335.48,269.16"/>
		<path style="fill:#91CF96;" d="M301.664,175.218c-12.501,0-26.078-1.809-40.704-5.436c-4.531-1.126-7.313-5.683-6.246-10.231
			c22.468-95.59,120.26-75.511,131.345-72.917c2.202,0.521,4.113,1.894,5.299,3.814c1.195,1.929,1.57,4.241,1.058,6.451
			l-0.367,1.655c-6.229,29.389-19.703,50.756-40.056,63.497C337.982,170.824,321.137,175.218,301.664,175.218"/>
	</g>
	<g>
		<path style="fill:#5ABA63;" d="M230.534,308.264c-1.715,0-3.439-0.512-4.941-1.579c-3.84-2.731-4.736-8.055-2.014-11.895
			c2.782-3.917,67.371-97.092,7.774-195.422c-2.441-4.036-1.161-9.276,2.876-11.725c4.028-2.458,9.276-1.143,11.716,2.876
			c65.502,108.083-7.714,213.12-8.465,214.17C235.816,307.018,233.196,308.264,230.534,308.264"/>
		<path style="fill:#5ABA63;" d="M239.072,103.477c-2.458,0-4.89-1.058-6.579-3.098c-14.49-17.527-29.961-30.421-48.7-40.602
			c-4.139-2.253-5.675-7.433-3.422-11.58c2.253-4.13,7.424-5.666,11.571-3.422c20.719,11.255,37.777,25.472,53.7,44.732
			c3.004,3.635,2.492,9.011-1.135,12.015C242.912,102.837,240.992,103.477,239.072,103.477"/>
		<path style="fill:#5ABA63;" d="M246.755,278.315c-2.15,0-4.309-0.811-5.973-2.441c-3.362-3.294-3.422-8.695-0.119-12.066
			c12.442-12.706,27.17-17.178,45.824-22.844l1.493-0.452c4.497-1.391,9.276,1.178,10.65,5.683
			c1.365,4.514-1.178,9.276-5.683,10.641l-1.502,0.461c-16.956,5.146-29.201,8.866-38.596,18.458
			C251.184,277.453,248.965,278.315,246.755,278.315"/>
		<path style="fill:#5ABA63;" d="M290.18,257.077c-3.115,0-6.118-1.715-7.629-4.685c-2.125-4.207-0.435-9.335,3.772-11.469
			c13.815-6.98,27.324-11.503,41.267-13.824c4.676-0.777,9.045,2.364,9.822,7.014c0.768,4.651-2.372,9.045-7.023,9.813
			c-12.39,2.065-23.945,5.948-36.369,12.237C292.792,256.778,291.469,257.077,290.18,257.077"/>
		<path style="fill:#5ABA63;" d="M261.914,228.722c-1.545,0-3.098-0.418-4.506-1.289c-3.157-1.971-6.161-3.891-9.045-5.734
			c-7.868-5.026-14.652-9.361-21.751-12.928c-4.207-2.116-5.905-7.253-3.78-11.46c2.116-4.207,7.245-5.922,11.46-3.789
			c7.868,3.968,15.343,8.738,23.253,13.798c2.842,1.809,5.786,3.686,8.892,5.623c4.002,2.5,5.222,7.765,2.731,11.759
			C267.546,227.297,264.764,228.722,261.914,228.722"/>
		<path style="fill:#5ABA63;" d="M263.026,170.035c-2.893,0-5.717-1.468-7.313-4.13c-2.441-4.036-1.135-9.276,2.901-11.708
			c6.562-3.959,12.732-8.021,18.714-11.955c17.161-11.298,33.365-21.965,53.709-27.017c4.531-1.135,9.199,1.647,10.342,6.229
			c1.126,4.574-1.655,9.199-6.229,10.342c-17.51,4.343-31.846,13.773-48.444,24.704c-6.17,4.053-12.51,8.226-19.285,12.305
			C266.046,169.643,264.527,170.035,263.026,170.035"/>
	</g>
	<polygon style="fill:#AF8066;" points="145.105,504.544 366.972,504.544 366.972,333.877 145.105,333.877 	"/>
	<g>
		<polygon style="fill:#D9AA94;" points="366.972,410.677 307.238,470.41 256.038,419.21 204.838,470.41 145.105,410.677 
			145.105,359.477 204.838,419.21 256.038,368.01 307.238,419.21 366.972,359.477 		"/>
		<polygon style="fill:#D9AA94;" points="136.572,333.877 375.505,333.877 375.505,299.744 136.572,299.744 		"/>
	</g>
	<path style="fill:#F0EDE0;" d="M409.638,513.077h-307.2c-4.71,0-8.533-3.823-8.533-8.533c0-4.71,3.823-8.533,8.533-8.533h307.2
		c4.71,0,8.533,3.823,8.533,8.533C418.172,509.254,414.349,513.077,409.638,513.077"/>
</g>
</svg>